# xmcd
#
# Track frame offsets:
#	150
#	18163
#	34066
#	49856
#	66634
#	90557
#	109811
#	136021
#	154955
#	177040
#	197658
#	209942
#	225423
#
# Disc length: 3274 seconds
#
# Revision: 1
# Processed by: cddbd v1.5.2PL0 Copyright (c) Steve Scherf et al.
# Submitted via: audiograbber 1.81.03
#
DISCID=b10cc80d
DTITLE=Mary`Barry - Red Eye Tonight
DYEAR=2007
DGENRE=Country
TTITLE0=Red Eye Tonight
TTITLE1=Hurrican Charley
TTITLE2=I Know I Should Run
TTITLE3=So Long
TTITLE4=Brasse Partout
TTITLE5=Laura Nyro Passed Away Today
TTITLE6=So Shy
TTITLE7=Still Life With The Blues
TTITLE8=Twilight Magic
TTITLE9=Nothing More To Say
TTITLE10=All I Need
TTITLE11=La Fille De La Mer
TTITLE12=You're The One
EXTD=
EXTT0=
EXTT1=
EXTT2=
EXTT3=
EXTT4=
EXTT5=
EXTT6=
EXTT7=
EXTT8=
EXTT9=
EXTT10=
EXTT11=
EXTT12=
PLAYORDER=
